<?xml version="1.0" encoding="utf-8"?>
<!-- Generator: Adobe Illustrator 24.3.0, SVG Export Plug-In . SVG Version: 6.00 Build 0)  -->
<svg version="1.1" id="Layer_1" xmlns="http://www.w3.org/2000/svg" xmlns:xlink="http://www.w3.org/1999/xlink" x="0px" y="0px"
	 viewBox="0 0 44.6 44.6" style="enable-background:new 0 0 44.6 44.6;" xml:space="preserve">
<style type="text/css">
	.st0{fill:#606060;}
	.st1{fill:none;stroke:#606060;stroke-width:0.5;stroke-miterlimit:10;}
</style>
<g id="outlined">
	<path class="st0" d="M5.3,31.8h2.1V12.8H5.3v-0.5h5.8v0.5H8.9v8.4c0,0,3.3,0.1,5,0.1s5.2-0.1,5.2-0.1v-8.3h-2.2v-0.5h5.8v0.5h-2.1
		v18.9h2.1v0.6h-5.8v-0.5H19v-9.7c0,0-3.4-0.1-5-0.1S9,22.1,9,22.1v9.7h2.1v0.5H5.3V31.8L5.3,31.8z"/>
	<path class="st0" d="M24.9,31.8h2.3v0.6h-5.1v-0.5h2v-19h-2v-0.5h2.8l12.8,17.2V12.8l-2.4,0v-0.6h5.1v0.5h-1.9v19.5h-0.8l-12.8-17
		L24.9,31.8z"/>
</g>
<rect x="0.2" y="0.2" class="st1" width="44.1" height="44.1"/>
</svg>
