<svg enable-background="new 0 0 452 20" viewBox="0 0 452 20" xmlns="http://www.w3.org/2000/svg"><g fill="#606060"><path d="m326.2 19.4h1.9c.1-1.9 0-18.9 0-18.9h-1.9v-.5h11.8v3h-.4l-.2-1.5c-1.8-.7-3.7-1-5.6-.9h-1.9v8.4c1.9 0 5.3.2 6.5-.2l.2-1.5h.4v4.7h-.4l-.2-2.3c-1.3-.4-4.6-.2-6.5-.2v9.9h1.8c2.7 0 4.4-.3 5.7-1.1l.2-1.8h.4v3.5h-11.8z"/><path d="m95.4 19.4h1.9c.2-1.9 0-18.9 0-18.9h-2v-.5h11.8v3h-.4l-.2-1.5c-1.8-.7-3.7-1-5.6-.9l-1.9-.1v8.4c1.9 0 5.3.2 6.5-.2l.2-1.5h.4v4.8h-.4l-.2-2.3c-1.3-.4-4.6-.2-6.5-.2v9.9h1.8c2.7 0 4.4-.3 5.7-1.1l.2-1.8h.4v3.5h-11.7z"/><path d="m0 19.4h2.1v-18.9h-2.1v-.4h5.8v.5h-2.2v8.4s3.3.1 5 .1 5.2-.1 5.2-.1v-8.5h-2.2v-.4h5.8v.5h-2.1v18.9h2.1v.5h-5.8v-.5h2.1v-9.7s-3.4-.1-5-.1-5 .1-5 .1v9.7h2.1v.5h-5.8z"/><path d="m69.4 19.4h2.1v-18.9h-2.1v-.4h5.8v.5h-2.2v8.4s3.3.1 5 .1 5.2-.1 5.2-.1v-8.5h-2.2v-.4h5.8v.5h-2v18.9h2.1v.5h-5.9v-.5h2.1v-9.7s-3.4-.1-5-.1-5.1.1-5.1.1v9.7h2.2v.5h-5.8z"/><path d="m26 19.4h1.9c.1-1.9 0-18.9 0-18.9h-1.9v-.5h11.7v3h-.4l-.2-1.5c-1.8-.7-3.7-1-5.6-.9l-1.9-.1v8.4c1.9 0 5.3.2 6.5-.2l.2-1.5h.4v4.8h-.4l-.2-2.3c-1.3-.4-4.6-.2-6.5-.2v9.9h1.9c2.6 0 4.4-.3 5.7-1.1l.2-1.8h.4v3.5h-11.8z"/><path d="m52.3 19.4h1.8v-18.9c-1.8.1-3.6.4-5.3.9l-.2 1.6h-.4v-2.9h13.6v2.9h-.4l-.2-1.5c-1.8-.5-3.6-.8-5.4-.9v18.9h1.8v.5h-5.4v-.6z"/><path d="m210.8 19.4h1.8v-18.9c-1.8.1-3.6.4-5.3.9l-.2 1.6h-.4v-2.9h13.6v2.9h-.4l-.2-1.5c-1.8-.5-3.6-.8-5.4-.9v18.9h1.9v.5h-5.4z"/><path d="m123.2 20h-6.4v-.6h2v-18.9h-1.9v-.5c.8.1 6 0 6.9 0 3.5 0 5.2 1.4 5.2 4.5s-2.7 5-6.3 5.2l7.6 9.8h1.8v.5h-3.4l-8.1-10.5v9.9h2.7v.6zm-.9-11.1c3.3 0 4.8-1.3 4.8-4.2s-1.3-4.2-4-4.2h-2.7v8.3z"/><path d="m145.9.5h-2.1v18.9h2.1v.6h-5.9v-.5h2.1v-19h-2.1v-.5h5.9z"/><path d="m158.7 19.4h2.3v.6h-5.2v-.5h2v-19h-2v-.5h2.8l12.8 17.2v-16.7h-2.4v-.5h5.2v.5h-1.9v19.5h-.8l-12.9-17z"/><path d="m256.9 19.4h2.3v.6h-5.2v-.5h2v-19h-2v-.5h2.8l12.8 17.2v-16.7h-2.4v-.5h5.1v.5h-1.9v19.5h-.8l-12.8-17z"/><path d="m302.7 19.4h2.3v.6h-5.1v-.5h2v-19h-2v-.5h2.8l12.8 17.2v-16.7h-2.4v-.5h5.1v.5h-1.9v19.5h-.8l-12.9-17z"/><path d="m436.5 19.4h2.3v.6h-5.1v-.5h2v-18.9h-2v-.6h2.8l12.8 17.2v-16.7h-2.4v-.5h5.2v.5h-1.9v19.5h-.8l-13-17z"/><path d="m191.6 20c-6 0-9.6-3.7-9.6-9.5 0-6.4 3.9-10.5 10.4-10.5 1.3 0 2.6.1 3.9.4v3.3h-.4v-1.7c-1.3-.9-2.9-1.3-4.5-1.3-4.6 0-7.4 3.4-7.4 9.3-.1 2.5.7 4.9 2.3 6.9 1.3 1.7 3.4 2.6 5.5 2.5 1.3 0 2.6-.3 3.8-.8.1-.7.1-2.4.1-4.8 0-.6 0-1.2-.1-1.8l-2.1-.1v-.4c.9.1 1.9.1 2.7.1s1.8 0 2.7-.1v.4l-1.4.1c-.2 1.2-.2 2.4-.2 3.7 0 1.1.1 2.3.2 3.4-2 .5-4 .8-5.9.9z"/><path d="m229.6 17.4c-1.9-2-2.9-4.6-2.8-7.4-.1-2.5.8-4.9 2.4-6.9 1.9-2.1 4.7-3.3 7.5-3.1 3 0 5.2.7 7.1 2.6 1.9 2 2.9 4.7 2.8 7.4.1 2.5-.8 4.9-2.4 6.8-1.9 2.1-4.7 3.3-7.5 3.1-3.1.1-5.3-.6-7.1-2.5zm15-7c0-6.1-3.2-9.8-8.1-9.8s-7.7 3.4-7.7 9c0 6.1 3.2 9.9 8.1 9.9s7.7-3.5 7.7-9.1z"/><path d="m372.3.5h-1.5l-2.9 19.5h-.4c-1.2-4-8.2-17.2-8.2-17.2l-7.5 17.2h-.6c0-.1-2.3-19.4-2.3-19.4h-1.5v-.6h5.2v.5h-1.8l2 15.3 6.9-15.8h.1l8 16.3 2.3-15.7h-2.6v-.6h4.7z"/><path d="m376.1 19.4h1.5l2.9-19.4h.5c1.2 4 8.2 17.2 8.2 17.2l7.4-17.2h.6c0 .1 2.3 19.4 2.3 19.4h1.5v.6h-5.2v-.5h1.8l-2-15.3-6.9 15.8h-.1l-8-16.3-2.3 15.7h2.6v.6h-4.7z"/><path d="m407.2 19.5h2l7.4-19.5h.3l6.8 19.4h1.6v.6h-5.8v-.5h2l-2.1-6.5h-7l-2.3 6.4h2.6v.6h-5.4zm12-7.3-3.2-8.9-3.4 8.9z"/></g></svg>